<svg width="144" height="144" viewBox="0 0 144 144" fill="none" xmlns="http://www.w3.org/2000/svg">
<path d="M18 30C18 23.373 23.373 18 30 18H114C120.627 18 126 23.373 126 30V114C126 120.627 120.627 126 114 126H30C23.373 126 18 120.627 18 114V30Z" fill="#FF5722"/>
<path d="M27 27V117H117V27H27ZM71.073 93L68.787 84.27H57.039L54.756 93H45.645L58.974 50.343H66.855L80.274 93H71.073ZM92.55 93H84.231V61.302H92.55V93ZM91.656 56.262C90.843 57.102 89.748 57.522 88.359 57.522C86.97 57.522 85.875 57.102 85.062 56.262C84.249 55.422 83.847 54.366 83.847 53.097C83.847 51.807 84.258 50.754 85.077 49.932C85.896 49.11 86.994 48.702 88.359 48.702C89.724 48.702 90.819 49.113 91.641 49.932C92.463 50.751 92.871 51.807 92.871 53.097C92.871 54.366 92.466 55.422 91.656 56.262Z" fill="#1C0802"/>
<path d="M58.917 77.091H66.885L62.901 61.887L58.917 77.091Z" fill="#1C0802"/>
</svg>



            