<svg width="144" height="144" viewBox="0 0 144 144" fill="none" xmlns="http://www.w3.org/2000/svg">
<path d="M78 51H54C42.402 51 33 41.598 33 30C33 18.402 42.402 9 54 9H78V51Z" fill="#E64A19"/>
<path d="M75 93H54C42.402 93 33 83.598 33 72C33 60.402 42.402 51 54 51H75V93Z" fill="#7C4DFF"/>
<path d="M54 135C42.402 135 33 125.598 33 114C33 102.402 42.402 93 54 93H75V114C75 125.598 65.598 135 54 135Z" fill="#66BB6A"/>
<path d="M96 51H75V9H96C107.598 9 117 18.402 117 30C117 41.598 107.598 51 96 51Z" fill="#FF7043"/>
<path d="M96 93C107.598 93 117 83.598 117 72C117 60.402 107.598 51 96 51C84.402 51 75 60.402 75 72C75 83.598 84.402 93 96 93Z" fill="#29B6F6"/>
</svg>
