<svg width="132" height="144" viewBox="0 0 132 144" fill="none" xmlns="http://www.w3.org/2000/svg">
<path d="M65.9678 0.5C63.9603 0.5 61.9532 0.992422 60.2207 1.98242L5.71484 33.4463C2.19484 35.4813 0 39.3343 0 43.4043V100.488C0 104.613 2.19484 108.411 5.71484 110.446L20.0234 118.696C26.9534 122.106 29.4246 122.102 32.5596 122.102C42.8446 122.102 48.7266 115.887 48.7266 105.107V46.208C48.7266 45.328 48.0167 44.6074 47.1367 44.6074H40.2617C39.3267 44.6074 38.6611 45.328 38.6611 46.208V105.054C38.6611 109.894 33.6622 114.622 25.5771 110.607L10.6133 101.971C10.0633 101.696 9.73242 101.093 9.73242 100.488V43.458C9.73242 42.798 10.0633 42.2411 10.6133 41.9111L65.1191 10.458C65.6141 10.128 66.2771 10.128 66.8271 10.458L121.333 41.9111C121.883 42.2411 122.214 42.7993 122.214 43.4043V100.488C122.214 101.093 121.882 101.696 121.387 101.971L66.8271 133.488C66.3321 133.763 65.6141 133.763 65.1191 133.488L51.0898 125.185C50.7048 124.91 50.1643 124.857 49.7793 125.077C45.8743 127.277 45.1593 127.55 41.5293 128.815C40.6493 129.09 39.2734 129.639 42.0234 131.179L60.2207 141.964C61.9807 142.954 63.9663 143.5 65.9463 143.5C67.9813 143.5 69.9548 142.954 71.7148 141.964L126.285 110.446C129.805 108.411 132 104.613 132 100.488V43.458C132 39.333 129.805 35.535 126.285 33.5L71.7148 1.98242C69.9823 0.992422 67.9753 0.5 65.9678 0.5ZM80.6309 44.5322C65.0659 44.5322 55.7734 51.1279 55.7734 62.1279C55.7734 74.0629 65.0048 77.3578 79.9648 78.8428C97.8398 80.6028 99.2148 83.2505 99.2148 86.7705C99.2148 92.8205 94.328 95.4072 82.833 95.4072C68.368 95.4072 65.1759 91.7721 64.1309 84.6221C64.0209 83.8521 63.3647 83.3008 62.5947 83.3008H55.4941C54.6141 83.3008 53.958 84.0227 53.958 84.8477C53.958 94.0327 58.963 104.968 82.833 104.968C100.103 104.968 110 98.1564 110 86.2764C110 74.5064 102.024 71.3653 85.3037 69.1104C68.3087 66.9104 66.6016 65.7549 66.6016 61.7949C66.6016 58.4949 68.0909 54.1572 80.6309 54.1572C91.7959 54.1572 95.9737 56.5695 97.6787 64.1045C97.8437 64.8195 98.4448 65.3721 99.2148 65.3721H106.315C106.755 65.3721 107.135 65.1542 107.465 64.8242C107.74 64.5492 107.907 64.1054 107.852 63.6104C106.752 50.6304 98.1209 44.5322 80.6309 44.5322Z" fill="#569E4A"/>
</svg>
