<svg width="144" height="144" viewBox="0 0 144 144" fill="none" xmlns="http://www.w3.org/2000/svg">
<path d="M18 30C18 23.373 23.373 18 30 18H114C120.627 18 126 23.373 126 30V114C126 120.627 120.627 126 114 126H30C23.373 126 18 120.627 18 114V30Z" fill="#03A9F4"/>
<path d="M60.048 57.522H54.042V70.824H59.961C61.602 70.824 62.871 70.287 63.771 69.213C64.671 68.139 65.118 66.576 65.118 64.524C65.118 62.394 64.659 60.702 63.741 59.442C62.823 58.182 61.59 57.543 60.048 57.522Z" fill="#020F16"/>
<path d="M27 27V117H117V27H27ZM70.095 74.367C67.617 76.791 64.179 78 59.784 78H54.042V93H45.429V50.343H59.961C64.179 50.343 67.545 51.654 70.053 54.27C72.561 56.886 73.818 60.285 73.818 64.464C73.818 68.643 72.576 71.943 70.095 74.367ZM98.046 91.008C95.919 92.727 93.123 93.585 89.667 93.585C87.342 93.585 85.29 93.132 83.514 92.223C81.738 91.314 80.343 90.048 79.338 88.428C78.333 86.808 77.829 85.059 77.829 83.184H85.71C85.752 84.627 86.085 85.713 86.721 86.436C87.357 87.159 88.395 87.519 89.841 87.519C92.067 87.519 93.18 86.514 93.18 84.501C93.18 83.799 92.844 83.148 92.169 82.554C91.494 81.96 90 81.156 87.675 80.139C84.258 78.753 81.909 77.319 80.628 75.831C79.347 74.343 78.708 72.501 78.708 70.293C78.708 67.518 79.71 65.229 81.711 63.423C83.712 61.617 86.367 60.714 89.664 60.714C93.138 60.714 95.922 61.614 98.013 63.408C100.104 65.202 101.148 67.617 101.148 70.644H92.856C92.856 68.067 91.785 66.777 89.634 66.777C88.755 66.777 88.035 67.05 87.465 67.596C86.895 68.142 86.616 68.907 86.616 69.882C86.616 70.584 86.928 71.205 87.555 71.742C88.182 72.279 89.652 73.047 91.98 74.043C95.361 75.294 97.746 76.686 99.144 78.219C100.542 79.752 101.238 81.741 101.238 84.18C101.238 87.015 100.173 89.289 98.046 91.008Z" fill="#020F16"/>
</svg>
