<svg width="156" height="90" viewBox="0 0 156 90" fill="none" xmlns="http://www.w3.org/2000/svg">
<path d="M78 89.5231C121.078 89.5231 156 69.4827 156 44.7615C156 20.0404 121.078 0 78 0C34.9218 0 0 20.0404 0 44.7615C0 69.4827 34.9218 89.5231 78 89.5231Z" fill="#8993BE"/>
<path fill-rule="evenodd" clip-rule="evenodd" d="M21.9039 71.265L30.4523 23.5584H50.2186C58.7663 24.1475 63.0404 28.8588 63.0404 37.1051C63.0404 51.2402 52.8901 59.4858 43.8073 58.8966H34.192L32.0549 71.265H21.9039ZM36.3285 50.0626L39 32.3931H45.945C49.6848 32.3931 52.3556 34.1599 52.3556 37.6935C51.8218 47.7066 47.5477 49.4734 42.7397 50.0626H36.3291H36.3285ZM61.0545 58.8966L69.6022 11.1907H79.7532L77.6161 23.5584H87.232C95.7804 24.1475 98.9857 28.8588 97.9174 34.7491L94.1777 58.8966H83.4929L87.2327 37.1051C87.7665 34.1599 87.7665 32.3931 84.0273 32.3931H76.0134L71.2055 58.8966H61.0545ZM93.4934 71.265L102.041 23.5584H121.808C130.356 24.1475 134.63 28.8588 134.63 37.1051C134.63 51.2402 124.48 59.4858 115.397 58.8966H105.781L103.644 71.265H93.4934ZM107.917 50.0626L110.589 32.3931H117.534C121.274 32.3931 123.945 34.1599 123.945 37.6935C123.411 47.7066 119.137 49.4734 114.329 50.0626H107.918H107.917Z" fill="#232531"/>
</svg>
