<svg width="1920" height="376" viewBox="0 0 1920 376" fill="none" xmlns="http://www.w3.org/2000/svg">
<g clip-path="url(#clip0_106_10)">
<path d="M0 120.947L22.8267 124.707C45.44 128.467 91.0933 135.987 136.96 130.973C182.827 125.96 228.907 108.413 274.773 97.76C320.64 87.1067 366.293 83.3467 411.733 78.96C457.173 74.5733 502.827 69.56 548.267 69.56C593.707 69.56 639.36 74.5733 685.227 80.2133C731.093 85.8533 777.173 92.12 823.04 104.027C868.907 115.933 914.56 133.48 960 142.253C1005.44 151.027 1051.09 151.027 1096.96 144.76C1142.83 138.493 1188.91 125.96 1234.77 117.813C1280.64 109.667 1326.29 105.907 1371.73 104.653C1417.17 103.4 1462.83 104.653 1508.27 99.0133C1553.71 93.3733 1599.36 80.84 1645.23 82.0933C1691.09 83.3467 1737.17 98.3867 1783.04 105.28C1828.91 112.173 1874.56 110.92 1897.17 110.293L1920 109.667V0H1897.17C1874.56 0 1828.91 0 1783.04 0C1737.17 0 1691.09 0 1645.23 0C1599.36 0 1553.71 0 1508.27 0C1462.83 0 1417.17 0 1371.73 0C1326.29 0 1280.64 0 1234.77 0C1188.91 0 1142.83 0 1096.96 0C1051.09 0 1005.44 0 960 0C914.56 0 868.907 0 823.04 0C777.173 0 731.093 0 685.227 0C639.36 0 593.707 0 548.267 0C502.827 0 457.173 0 411.733 0C366.293 0 320.64 0 274.773 0C228.907 0 182.827 0 136.96 0C91.0933 0 45.44 0 22.8267 0H0V120.947Z" fill="#202731"/>
<path d="M0 203.667L22.8267 210.56C45.44 217.453 91.0933 231.24 136.96 231.24C182.827 231.24 228.907 217.453 274.773 206.8C320.64 196.147 366.293 188.627 411.733 186.12C457.173 183.613 502.827 186.12 548.267 186.12C593.707 186.12 639.36 183.613 685.227 193.64C731.093 203.667 777.173 226.227 823.04 236.88C868.907 247.533 914.56 246.28 960 242.52C1005.44 238.76 1051.09 232.493 1096.96 226.227C1142.83 219.96 1188.91 213.693 1234.77 213.693C1280.64 213.693 1326.29 219.96 1371.73 224.973C1417.17 229.987 1462.83 233.747 1508.27 225.6C1553.71 217.453 1599.36 197.4 1645.23 194.267C1691.09 191.133 1737.17 204.92 1783.04 213.693C1828.91 222.467 1874.56 226.227 1897.17 228.107L1920 229.987V108.413L1897.17 109.04C1874.56 109.667 1828.91 110.92 1783.04 104.027C1737.17 97.1333 1691.09 82.0933 1645.23 80.84C1599.36 79.5866 1553.71 92.12 1508.27 97.76C1462.83 103.4 1417.17 102.147 1371.73 103.4C1326.29 104.653 1280.64 108.413 1234.77 116.56C1188.91 124.707 1142.83 137.24 1096.96 143.507C1051.09 149.773 1005.44 149.773 960 141C914.56 132.227 868.907 114.68 823.04 102.773C777.173 90.8666 731.093 84.6 685.227 78.96C639.36 73.32 593.707 68.3066 548.267 68.3066C502.827 68.3066 457.173 73.32 411.733 77.7066C366.293 82.0933 320.64 85.8533 274.773 96.5066C228.907 107.16 182.827 124.707 136.96 129.72C91.0933 134.733 45.44 127.213 22.8267 123.453L0 119.693V203.667Z" fill="#23395C"/>
<path d="M0 271.347L22.8267 273.853C45.44 276.36 91.0933 281.373 136.96 280.747C182.827 280.12 228.907 273.853 274.773 270.72C320.64 267.587 366.293 267.587 411.733 268.213C457.173 268.84 502.827 270.093 548.267 268.84C593.707 267.587 639.36 263.827 685.227 267.587C731.093 271.347 777.173 282.627 823.04 288.893C868.907 295.16 914.56 296.413 960 292.027C1005.44 287.64 1051.09 277.613 1096.96 276.987C1142.83 276.36 1188.91 285.133 1234.77 284.507C1280.64 283.88 1326.29 273.853 1371.73 270.72C1417.17 267.587 1462.83 271.347 1508.27 270.72C1553.71 270.093 1599.36 265.08 1645.23 264.453C1691.09 263.827 1737.17 267.587 1783.04 272.6C1828.91 277.613 1874.56 283.88 1897.17 287.013L1920 290.147V228.733L1897.17 226.853C1874.56 224.973 1828.91 221.213 1783.04 212.44C1737.17 203.667 1691.09 189.88 1645.23 193.013C1599.36 196.147 1553.71 216.2 1508.27 224.347C1462.83 232.493 1417.17 228.733 1371.73 223.72C1326.29 218.707 1280.64 212.44 1234.77 212.44C1188.91 212.44 1142.83 218.707 1096.96 224.973C1051.09 231.24 1005.44 237.507 960 241.267C914.56 245.027 868.907 246.28 823.04 235.627C777.173 224.973 731.093 202.413 685.227 192.387C639.36 182.36 593.707 184.867 548.267 184.867C502.827 184.867 457.173 182.36 411.733 184.867C366.293 187.373 320.64 194.893 274.773 205.547C228.907 216.2 182.827 229.987 136.96 229.987C91.0933 229.987 45.44 216.2 22.8267 209.307L0 202.413V271.347Z" fill="#314A89"/>
<path d="M0 331.507L22.8267 330.88C45.44 330.254 91.0933 329 136.96 323.987C182.827 318.974 228.907 310.2 274.773 307.694C320.64 305.187 366.293 308.947 411.733 308.947C457.173 308.947 502.827 305.187 548.267 305.814C593.707 306.44 639.36 311.454 685.227 316.467C731.093 321.48 777.173 326.494 823.04 327.747C868.907 329 914.56 326.494 960 321.48C1005.44 316.467 1051.09 308.947 1096.96 308.947C1142.83 308.947 1188.91 316.467 1234.77 320.227C1280.64 323.987 1326.29 323.987 1371.73 324.614C1417.17 325.24 1462.83 326.494 1508.27 323.987C1553.71 321.48 1599.36 315.214 1645.23 312.707C1691.09 310.2 1737.17 311.454 1783.04 312.707C1828.91 313.96 1874.56 315.214 1897.17 315.84L1920 316.467V288.894L1897.17 285.76C1874.56 282.627 1828.91 276.36 1783.04 271.347C1737.17 266.334 1691.09 262.573 1645.23 263.2C1599.36 263.827 1553.71 268.84 1508.27 269.467C1462.83 270.094 1417.17 266.334 1371.73 269.467C1326.29 272.6 1280.64 282.627 1234.77 283.254C1188.91 283.88 1142.83 275.107 1096.96 275.734C1051.09 276.36 1005.44 286.387 960 290.774C914.56 295.16 868.907 293.907 823.04 287.64C777.173 281.374 731.093 270.094 685.227 266.334C639.36 262.573 593.707 266.334 548.267 267.587C502.827 268.84 457.173 267.587 411.733 266.96C366.293 266.334 320.64 266.334 274.773 269.467C228.907 272.6 182.827 278.867 136.96 279.494C91.0933 280.12 45.44 275.107 22.8267 272.6L0 270.094V331.507Z" fill="#5258B4"/>
<path d="M0 376.627H22.8267C45.44 376.627 91.0933 376.627 136.96 376.627C182.827 376.627 228.907 376.627 274.773 376.627C320.64 376.627 366.293 376.627 411.733 376.627C457.173 376.627 502.827 376.627 548.267 376.627C593.707 376.627 639.36 376.627 685.227 376.627C731.093 376.627 777.173 376.627 823.04 376.627C868.907 376.627 914.56 376.627 960 376.627C1005.44 376.627 1051.09 376.627 1096.96 376.627C1142.83 376.627 1188.91 376.627 1234.77 376.627C1280.64 376.627 1326.29 376.627 1371.73 376.627C1417.17 376.627 1462.83 376.627 1508.27 376.627C1553.71 376.627 1599.36 376.627 1645.23 376.627C1691.09 376.627 1737.17 376.627 1783.04 376.627C1828.91 376.627 1874.56 376.627 1897.17 376.627H1920V315.214L1897.17 314.587C1874.56 313.96 1828.91 312.707 1783.04 311.454C1737.17 310.2 1691.09 308.947 1645.23 311.454C1599.36 313.96 1553.71 320.227 1508.27 322.734C1462.83 325.24 1417.17 323.987 1371.73 323.36C1326.29 322.734 1280.64 322.734 1234.77 318.974C1188.91 315.214 1142.83 307.694 1096.96 307.694C1051.09 307.694 1005.44 315.214 960 320.227C914.56 325.24 868.907 327.747 823.04 326.494C777.173 325.24 731.093 320.227 685.227 315.214C639.36 310.2 593.707 305.187 548.267 304.56C502.827 303.934 457.173 307.694 411.733 307.694C366.293 307.694 320.64 303.934 274.773 306.44C228.907 308.947 182.827 317.72 136.96 322.734C91.0933 327.747 45.44 329 22.8267 329.627L0 330.254V376.627Z" fill="#8161DC"/>
</g>
<defs>
<clipPath id="clip0_106_10">
<rect width="1920" height="376" fill="white"/>
</clipPath>
</defs>
</svg>
