<svg width="760" height="668" viewBox="0 0 760 668" fill="none" xmlns="http://www.w3.org/2000/svg">
<rect x="292" y="246" width="176" height="176" rx="30" fill="#15390F"/>
<rect x="292" width="176" height="176" rx="30" fill="#C4C4C4"/>
<rect y="492" width="176" height="176" rx="30" fill="#03A9F4" fill-opacity="0.33"/>
<rect y="246" width="176" height="176" rx="30" fill="#80DEEA" fill-opacity="0.32"/>
<rect width="176" height="176" rx="30" fill="#E65100" fill-opacity="0.5"/>
<path d="M139 31H37L46 133L88 145L130 133L139 31Z" fill="#E65100"/>
<path d="M88 40V135.7L121.6 126.1L129.1 40H88Z" fill="#FF6D00"/>
<path d="M88 91V79H113.8L111.7 113.5L88 121.3V108.7L100.3 104.5L101.2 91H88V91ZM114.7 67L115.6 55H88V67H114.7Z" fill="white"/>
<path d="M88 108.7V121.3L64.3 113.5L63.1 97H75.1L75.7 104.5L88 108.7ZM73.3 67H88V55H60.7L62.8 91H88V79H74.2L73.3 67Z" fill="#EEEEEE"/>
<rect x="292" width="176" height="176" rx="30" fill="#0277BD" fill-opacity="0.72"/>
<path d="M431 31H329L338 133L380 145L422 133L431 31Z" fill="#0277BD"/>
<path d="M380 40V135.7L413.6 126.1L421.1 40H380Z" fill="#039BE5"/>
<path d="M407.3 55H380V67H394.7L393.8 79H380V91H393.2L392.3 104.5L380 108.7V121.3L403.7 113.5L405.8 79L407.3 55Z" fill="white"/>
<path d="M380 55V67H353.3L352.4 55H380ZM366.2 79L366.8 91H380V79H366.2ZM367.4 97H355.4L356.3 113.5L380 121.3V108.7L367.7 104.5L367.4 97Z" fill="#EEEEEE"/>
<rect x="584" width="176" height="176" rx="30" fill="#FFD600" fill-opacity="0.62"/>
<path d="M617 142V34H725V142H617Z" fill="#FFD600"/>
<path d="M687.614 114.841C689.69 118.213 691.946 121.444 696.725 121.444C700.739 121.444 702.845 119.449 702.845 116.689C702.845 113.386 700.667 112.213 696.251 110.29L693.83 109.258C686.843 106.294 682.196 102.58 682.196 94.735C682.196 87.505 687.731 82.003 696.38 82.003C702.539 82.003 706.964 84.136 710.156 89.722L702.614 94.543C700.955 91.579 699.161 90.412 696.38 90.412C693.542 90.412 691.745 92.203 691.745 94.543C691.745 97.435 693.545 98.605 697.7 100.396L700.121 101.428C708.356 104.935 713 108.517 713 116.569C713 125.245 706.148 130 696.95 130C687.953 130 682.844 125.485 680 119.896L687.614 114.841ZM652.856 115.087C654.374 117.805 656.681 119.896 659.999 119.896C663.173 119.896 665 118.642 665 113.767V82H674.999V115.303C674.999 125.404 669.14 130 660.584 130C652.853 130 647.273 124.762 644.999 119.896L652.856 115.087Z" fill="#000001"/>
<rect x="292" y="492" width="176" height="176" rx="30" fill="#FF5722" fill-opacity="0.63"/>
<path d="M326 538C326 531.373 331.373 526 338 526H422C428.627 526 434 531.373 434 538V622C434 628.627 428.627 634 422 634H338C331.373 634 326 628.627 326 622V538Z" fill="#FF5722"/>
<path d="M335 535V625H425V535H335ZM379.073 601L376.787 592.27H365.039L362.756 601H353.645L366.974 558.343H374.855L388.274 601H379.073ZM400.55 601H392.231V569.302H400.55V601ZM399.656 564.262C398.843 565.102 397.748 565.522 396.359 565.522C394.97 565.522 393.875 565.102 393.062 564.262C392.249 563.422 391.847 562.366 391.847 561.097C391.847 559.807 392.258 558.754 393.077 557.932C393.896 557.11 394.994 556.702 396.359 556.702C397.724 556.702 398.819 557.113 399.641 557.932C400.463 558.751 400.871 559.807 400.871 561.097C400.871 562.366 400.466 563.422 399.656 564.262Z" fill="#1C0802"/>
<path d="M366.917 585.091H374.885L370.901 569.887L366.917 585.091Z" fill="#1C0802"/>
<path d="M379.968 260.5C377.96 260.5 375.953 260.992 374.221 261.982L319.715 293.446C316.195 295.481 314 299.334 314 303.404V360.488C314 364.613 316.195 368.411 319.715 370.446L334.023 378.696C340.953 382.106 343.425 382.102 346.56 382.102C356.845 382.102 362.727 375.887 362.727 365.107V306.208C362.727 305.328 362.017 304.607 361.137 304.607H354.262C353.327 304.607 352.661 305.328 352.661 306.208V365.054C352.661 369.894 347.662 374.622 339.577 370.607L324.613 361.971C324.063 361.696 323.732 361.093 323.732 360.488V303.458C323.732 302.798 324.063 302.241 324.613 301.911L379.119 270.458C379.614 270.128 380.277 270.128 380.827 270.458L435.333 301.911C435.883 302.241 436.214 302.799 436.214 303.404V360.488C436.214 361.093 435.882 361.696 435.387 361.971L380.827 393.488C380.332 393.763 379.614 393.763 379.119 393.488L365.09 385.185C364.705 384.91 364.164 384.857 363.779 385.077C359.874 387.277 359.159 387.55 355.529 388.815C354.649 389.09 353.273 389.639 356.023 391.179L374.221 401.964C375.981 402.954 377.966 403.5 379.946 403.5C381.981 403.5 383.955 402.954 385.715 401.964L440.285 370.446C443.805 368.411 446 364.613 446 360.488V303.458C446 299.333 443.805 295.535 440.285 293.5L385.715 261.982C383.982 260.992 381.975 260.5 379.968 260.5ZM394.631 304.532C379.066 304.532 369.773 311.128 369.773 322.128C369.773 334.063 379.005 337.358 393.965 338.843C411.84 340.603 413.215 343.251 413.215 346.771C413.215 352.821 408.328 355.407 396.833 355.407C382.368 355.407 379.176 351.772 378.131 344.622C378.021 343.852 377.365 343.301 376.595 343.301H369.494C368.614 343.301 367.958 344.023 367.958 344.848C367.958 354.033 372.963 364.968 396.833 364.968C414.103 364.968 424 358.156 424 346.276C424 334.506 416.024 331.365 399.304 329.11C382.309 326.91 380.602 325.755 380.602 321.795C380.602 318.495 382.091 314.157 394.631 314.157C405.796 314.157 409.974 316.569 411.679 324.104C411.844 324.819 412.445 325.372 413.215 325.372H420.315C420.755 325.372 421.135 325.154 421.465 324.824C421.74 324.549 421.907 324.105 421.852 323.61C420.752 310.63 412.121 304.532 394.631 304.532Z" fill="#569E4A"/>
<rect x="584" y="246" width="176" height="176" rx="30" fill="#8993BE" fill-opacity="0.37"/>
<path d="M671 378.523C714.078 378.523 749 358.483 749 333.762C749 309.04 714.078 289 671 289C627.922 289 593 309.04 593 333.762C593 358.483 627.922 378.523 671 378.523Z" fill="#8993BE"/>
<path fill-rule="evenodd" clip-rule="evenodd" d="M614.904 360.265L623.452 312.558H643.219C651.766 313.148 656.04 317.859 656.04 326.105C656.04 340.24 645.89 348.486 636.807 347.897H627.192L625.055 360.265H614.904ZM629.328 339.063L632 321.393H638.945C642.685 321.393 645.356 323.16 645.356 326.694C644.822 336.707 640.548 338.473 635.74 339.063H629.329H629.328ZM654.054 347.897L662.602 300.191H672.753L670.616 312.558H680.232C688.78 313.148 691.986 317.859 690.917 323.749L687.178 347.897H676.493L680.233 326.105C680.766 323.16 680.766 321.393 677.027 321.393H669.013L664.205 347.897H654.054V347.897ZM686.493 360.265L695.041 312.558H714.808C723.356 313.148 727.63 317.859 727.63 326.105C727.63 340.24 717.48 348.486 708.397 347.897H698.781L696.644 360.265H686.493V360.265ZM700.917 339.063L703.589 321.393H710.534C714.274 321.393 716.945 323.16 716.945 326.694C716.411 336.707 712.137 338.473 707.329 339.063H700.918H700.917Z" fill="#232531"/>
<rect x="584" y="492" width="176" height="176" rx="30" fill="#7C4DFF" fill-opacity="0.42"/>
<path d="M677 559H653C641.402 559 632 549.598 632 538C632 526.402 641.402 517 653 517H677V559Z" fill="#E64A19"/>
<path d="M674 601H653C641.402 601 632 591.598 632 580C632 568.402 641.402 559 653 559H674V601Z" fill="#7C4DFF"/>
<path d="M653 643C641.402 643 632 633.598 632 622C632 610.402 641.402 601 653 601H674V622C674 633.598 664.598 643 653 643Z" fill="#66BB6A"/>
<path d="M695 559H674V517H695C706.598 517 716 526.402 716 538C716 549.598 706.598 559 695 559Z" fill="#FF7043"/>
<path d="M695 601C706.598 601 716 591.598 716 580C716 568.402 706.598 559 695 559C683.402 559 674 568.402 674 580C674 591.598 683.402 601 695 601Z" fill="#29B6F6"/>
<path d="M34 538C34 531.373 39.373 526 46 526H130C136.627 526 142 531.373 142 538V622C142 628.627 136.627 634 130 634H46C39.373 634 34 628.627 34 622V538Z" fill="#03A9F4"/>
<path d="M76.048 565.522H70.042V578.824H75.961C77.602 578.824 78.871 578.287 79.771 577.213C80.671 576.139 81.118 574.576 81.118 572.524C81.118 570.394 80.659 568.702 79.741 567.442C78.823 566.182 77.59 565.543 76.048 565.522Z" fill="#020F16"/>
<path d="M43 535V625H133V535H43ZM86.095 582.367C83.617 584.791 80.179 586 75.784 586H70.042V601H61.429V558.343H75.961C80.179 558.343 83.545 559.654 86.053 562.27C88.561 564.886 89.818 568.285 89.818 572.464C89.818 576.643 88.576 579.943 86.095 582.367ZM114.046 599.008C111.919 600.727 109.123 601.585 105.667 601.585C103.342 601.585 101.29 601.132 99.514 600.223C97.738 599.314 96.343 598.048 95.338 596.428C94.333 594.808 93.829 593.059 93.829 591.184H101.71C101.752 592.627 102.085 593.713 102.721 594.436C103.357 595.159 104.395 595.519 105.841 595.519C108.067 595.519 109.18 594.514 109.18 592.501C109.18 591.799 108.844 591.148 108.169 590.554C107.494 589.96 106 589.156 103.675 588.139C100.258 586.753 97.909 585.319 96.628 583.831C95.347 582.343 94.708 580.501 94.708 578.293C94.708 575.518 95.71 573.229 97.711 571.423C99.712 569.617 102.367 568.714 105.664 568.714C109.138 568.714 111.922 569.614 114.013 571.408C116.104 573.202 117.148 575.617 117.148 578.644H108.856C108.856 576.067 107.785 574.777 105.634 574.777C104.755 574.777 104.035 575.05 103.465 575.596C102.895 576.142 102.616 576.907 102.616 577.882C102.616 578.584 102.928 579.205 103.555 579.742C104.182 580.279 105.652 581.047 107.98 582.043C111.361 583.294 113.746 584.686 115.144 586.219C116.542 587.752 117.238 589.741 117.238 592.18C117.238 595.015 116.173 597.289 114.046 599.008Z" fill="#020F16"/>
<path d="M88 364C49.3 364 19 350.8 19 334C19 317.2 49.3 304 88 304C126.7 304 157 317.2 157 334C157 350.8 126.7 364 88 364ZM88 310C50.2 310 25 322.3 25 334C25 345.7 50.2 358 88 358C125.8 358 151 345.7 151 334C151 322.3 125.8 310 88 310Z" fill="#80DEEA"/>
<path d="M61.3 395.8C58.3 395.8 55.9 395.2 53.5 393.7C38.8 385.3 42.7 352.6 61.9 319C70.9 303.4 82 290.2 92.8 281.8C104.5 272.8 115 270.1 122.2 274.3C129.7 278.5 132.4 289 130.6 303.7C128.8 317.5 122.8 333.7 113.8 349.3C104.8 364.9 93.7 378.1 82.9 386.5C75.1 392.5 67.6 395.8 61.3 395.8ZM114.7 278.2C109.9 278.2 103.6 280.9 96.7 286.3C86.5 294.4 76 307 67.3 322C48.4 354.7 46.6 382.9 56.5 388.6C61.6 391.6 70 388.9 79.3 381.7C89.5 373.6 100 361 108.7 346C117.4 331 123.1 315.7 124.9 302.8C126.4 290.8 124.6 282.4 119.5 279.4C118 278.8 116.5 278.2 114.7 278.2Z" fill="#80DEEA"/>
<path d="M115 395.8C100 395.8 78.4 377.5 62.2 349C42.7 315.4 38.8 282.7 53.5 274.3C68.2 265.9 94.6 285.4 114.1 319C123.1 334.6 129.1 350.8 130.9 364.6C133 379.3 130 389.5 122.5 394C120.1 395.2 117.7 395.8 115 395.8ZM56.5 279.4C46.6 285.1 48.4 313.3 67.3 346C86.2 378.7 109.6 394.3 119.5 388.6C124.6 385.6 126.4 377.2 124.9 365.2C123.1 352.3 117.4 337 108.7 322C89.8 289.3 66.4 273.7 56.5 279.4Z" fill="#80DEEA"/>
<path d="M88 346C94.6274 346 100 340.627 100 334C100 327.373 94.6274 322 88 322C81.3726 322 76 327.373 76 334C76 340.627 81.3726 346 88 346Z" fill="#80DEEA"/>
</svg>
